<?xml version="1.0" encoding="utf-8"?><svg viewBox="0 0 32 32" xmlns="http://www.w3.org/2000/svg" xmlns:xlink="http://www.w3.org/1999/xlink"><style>:root>svg{display:none}:root>svg:target{display:block}</style><svg fill="none" viewBox="0 0 18 18" id="arrow-down" xmlns="http://www.w3.org/2000/svg"><path d="M9 2.813v12.374M3.938 10.125 9 15.188l5.063-5.063" stroke="currentColor" stroke-width="1.5" stroke-linecap="round" stroke-linejoin="round"/></svg><svg fill="none" viewBox="0 0 32 32" id="arrow-right" xmlns="http://www.w3.org/2000/svg"><path d="M5 16h22M18 7l9 9-9 9" stroke="#231F20" stroke-width="2" stroke-linecap="round" stroke-linejoin="round"/></svg><svg fill="none" viewBox="0 0 12 12" id="base-phone" xmlns="http://www.w3.org/2000/svg"><path d="m10.405 7.426-2.196-.94a.748.748 0 0 0-.711.065l-1.174.782a3.588 3.588 0 0 1-1.65-1.643l.78-1.191a.748.748 0 0 0 .062-.707l-.942-2.197a.751.751 0 0 0-.78-.45A2.628 2.628 0 0 0 1.5 3.75a6.758 6.758 0 0 0 6.75 6.75 2.628 2.628 0 0 0 2.604-2.293.752.752 0 0 0-.45-.78Z" fill="currentColor"/></svg><svg fill="none" viewBox="0 0 32 32" id="burger" xmlns="http://www.w3.org/2000/svg"><path d="M5 8h22M5 16h22M5 24h13" stroke="#fff" stroke-width="2" stroke-linecap="round" stroke-linejoin="round"/></svg><svg fill="none" viewBox="0 0 18 18" id="check" xmlns="http://www.w3.org/2000/svg"><path d="M9 1.688A7.312 7.312 0 1 0 16.313 9 7.32 7.32 0 0 0 9 1.687Zm3.483 6.032-4.126 3.937a.564.564 0 0 1-.778 0L5.517 9.688a.563.563 0 0 1 .778-.814l1.673 1.598 3.737-3.567a.563.563 0 0 1 .778.815Z" fill="#fff"/></svg><svg fill="none" viewBox="0 0 32 32" id="close" xmlns="http://www.w3.org/2000/svg"><path d="M25 7 7 25M25 25 7 7" stroke="#2C3045" stroke-width="2" stroke-linecap="round" stroke-linejoin="round"/></svg><svg fill="none" viewBox="0 0 24 24" id="email" xmlns="http://www.w3.org/2000/svg"><path d="M21.75 5.232a.72.72 0 0 0-.082-.321.86.86 0 0 0-.078-.123.705.705 0 0 0-.025-.03l-.012-.015-.011-.01a.74.74 0 0 0-.114-.098l-.028-.019-.034-.02-.03-.016-.034-.016-.034-.014-.034-.012-.037-.01-.033-.01a.773.773 0 0 0-.148-.017L21 4.5H2.985a.753.753 0 0 0-.113.012l-.036.006-.035.01-.035.01-.035.012-.032.013-.036.018c-.01.004-.02.01-.029.015a.75.75 0 0 0-.035.02l-.027.018a.71.71 0 0 0-.114.098l-.01.011-.013.015a.783.783 0 0 0-.146.255.777.777 0 0 0-.038.22l-.001.017V18a1.502 1.502 0 0 0 1.5 1.5h16.5a1.502 1.502 0 0 0 1.5-1.5V5.232Zm-18 1.723L9.254 12 3.75 17.045V6.955ZM4.928 18l5.436-4.982 1.13 1.035a.75.75 0 0 0 1.013 0l1.13-1.036L19.071 18H4.928Zm9.818-6 5.504-5.045v10.09L14.747 12Z" fill="currentColor"/></svg><svg fill="none" viewBox="0 0 24 24" id="next" xmlns="http://www.w3.org/2000/svg"><path d="M19.28 12.97a.75.75 0 0 0-1.06 0l-5.47 5.47V3.75a.75.75 0 1 0-1.5 0v14.69l-5.47-5.47a.75.75 0 0 0-1.06 1.06l6.75 6.75.007.007c.015.015.031.03.047.043l.029.021.03.023.034.02.03.017.034.017.032.015c.011.005.022.008.034.012l.035.013.034.008.037.01.04.005.033.005a.762.762 0 0 0 .148 0c.011 0 .022-.003.033-.005l.04-.006.037-.009.034-.008.035-.013c.012-.004.023-.007.034-.012l.032-.015c.012-.006.023-.01.035-.017l.03-.017.032-.02.031-.023.029-.021a.76.76 0 0 0 .048-.043l.006-.007 6.75-6.75a.75.75 0 0 0 0-1.06Z" fill="#fff"/></svg><svg fill="none" viewBox="0 0 24 24" id="phone" xmlns="http://www.w3.org/2000/svg"><path d="m20.81 14.852-4.391-1.881a1.496 1.496 0 0 0-1.423.13l-2.348 1.565a7.176 7.176 0 0 1-3.3-3.286l1.56-2.383a1.496 1.496 0 0 0 .123-1.412L9.147 3.19a1.503 1.503 0 0 0-1.56-.898A5.257 5.257 0 0 0 3 7.5C3 14.944 9.056 21 16.5 21a5.257 5.257 0 0 0 5.208-4.586 1.503 1.503 0 0 0-.898-1.562Z" fill="currentColor"/></svg><svg fill="none" viewBox="0 0 24 24" id="plus" xmlns="http://www.w3.org/2000/svg"><path d="M3.75 12h16.5M12 3.75v16.5" stroke="currentColor" stroke-width="2" stroke-linecap="round" stroke-linejoin="round"/></svg></svg>