<svg width="52" height="52" fill="none" xmlns="http://www.w3.org/2000/svg"><circle cx="16.5" cy="21.5" r="15.5" fill="#C3D944"/><path d="M17.875 47.125h16.25M26 40.625V29.25M19.5 22.75l6.5 6.5 6.5-6.5" stroke="#231F20" stroke-width="2" stroke-linecap="round" stroke-linejoin="round"/><path d="M15.987 33.924A16.221 16.221 0 019.75 21.217c-.048-8.808 7.052-16.13 15.858-16.337a16.25 16.25 0 0110.429 29.026 4.936 4.936 0 00-1.912 3.87V39a1.625 1.625 0 01-1.625 1.625h-13A1.625 1.625 0 0117.875 39v-1.225a4.895 4.895 0 00-1.888-3.85v0z" stroke="#231F20" stroke-width="2" stroke-linecap="round" stroke-linejoin="round"/></svg>