<svg width="52" height="52" fill="none" xmlns="http://www.w3.org/2000/svg"><ellipse cx="26.5" cy="18.5" rx="24.5" ry="11.5" fill="#C3D944"/><path d="M43.877 14.625H8.127c-.898 0-1.625.727-1.625 1.625v26c0 .898.727 1.625 1.625 1.625h35.75c.897 0 1.625-.727 1.625-1.625v-26c0-.898-.728-1.625-1.625-1.625zM34.125 14.625v-3.25a3.25 3.25 0 00-3.25-3.25h-9.75a3.25 3.25 0 00-3.25 3.25v3.25" stroke="#231F20" stroke-width="2" stroke-linecap="round" stroke-linejoin="round"/><path d="M45.502 25.657A38.82 38.82 0 0126 30.875a38.82 38.82 0 01-19.499-5.217M23.563 24.375h4.875" stroke="#231F20" stroke-width="2" stroke-linecap="round" stroke-linejoin="round"/></svg>