<svg width="160" height="50" fill="none" xmlns="http://www.w3.org/2000/svg"><path d="M109.833 25.713l-2.733-1.34c.02-.046 2.127-4.353 2.727-7.686 1.286-7.107 2.5-13.814 7.3-13.847h.06c3.8 0 5.3 2.533 6.26 5.02 1.106 2.86 1.06 5.16 1.06 5.26l-3.04-.08s.02-1.82-.854-4.08c-.9-2.32-1.733-3.08-3.426-3.08h-.04c-2.28.013-3.414 6.3-4.327 11.347-.68 3.753-2.893 8.3-2.987 8.486z" fill="#EA373C"/><path d="M112.413 35.107c-.033-.034-3.486-3.36-6.473-4.96-6.367-3.407-12.373-6.627-10.927-11.207 1.16-3.667 4.047-4.32 6.727-4.473 3.053-.174 5.233.58 5.327.613l-1.014 2.867s-1.726-.574-4.14-.447c-2.506.14-3.48.713-3.993 2.347-.687 2.173 4.94 5.186 9.46 7.606 3.367 1.807 7.007 5.314 7.16 5.46l-2.113 2.187-.014.007z" fill="#593092"/><path d="M106.06 45.767c-.88 0-1.733-.254-2.533-.827-3.134-2.233-2.86-5.18-2.187-7.773.78-2.967 2.167-4.807 2.22-4.88l2.42 1.846s-1.087 1.46-1.7 3.807c-.633 2.427-.393 3.527 1.007 4.527 1.853 1.32 6.453-3.107 10.146-6.66 2.754-2.654 7.214-5.034 7.4-5.134l1.427 2.687c-.04.02-4.273 2.287-6.713 4.633-4.134 3.974-8.08 7.774-11.494 7.774h.007z" fill="#4EA5D6"/><path d="M127.287 46.14c-1.64 0-3.14-.76-4.474-1.613-2.58-1.654-3.906-3.54-3.96-3.614l2.5-1.733s1.06 1.48 3.1 2.787c2.114 1.353 3.24 1.46 4.614.433 1.826-1.36-.967-7.1-3.214-11.707-1.673-3.433-2.566-8.406-2.6-8.613l2.994-.533c.006.046.86 4.766 2.34 7.813 3.16 6.487 6.146 12.62 2.293 15.48-1.26.933-2.46 1.293-3.593 1.293v.007z" fill="#C3D944"/><path d="M131.76 29.02l-.88-2.913s1.733-.554 3.607-2.094c1.96-1.613 2.393-2.613 1.833-4.253-.733-2.16-7.053-1.267-12.133-.547-3.787.534-8.787-.146-9-.173l.413-3.013c.047.006 4.807.653 8.153.18 7.147-1.014 13.9-1.96 15.44 2.586 1.234 3.647-.72 5.874-2.786 7.58-2.367 1.947-4.567 2.627-4.66 2.654l.013-.007z" fill="#5DBE80"/><path d="M9.773 15.74v2.093H2.407v2.26H6.5c2.313 0 4.407 1.614 4.407 3.807 0 2.313-1.987 3.84-4.407 3.84H.007V15.747h9.766v-.007zM6.5 22.213H2.407v3.407H6.5c1.18 0 2.007-.74 2.007-1.733 0-.927-.84-1.68-2.007-1.68v.006zM13.233 15.74h6.133c2.574 0 4.727 1.693 4.727 4.247 0 2.413-2.28 4.246-4.727 4.246h-3.733v3.494h-2.4V15.733v.007zm6.133 2.207h-3.733v4.046h3.733c1.32 0 2.334-.873 2.334-2.006 0-1.134-.994-2.04-2.334-2.04zM35.833 27.733v-8l-7.433 8h-1.933V15.74h2.4v7.953l7.453-7.953h1.92v11.993h-2.407zM43.473 27.733h-2.4V15.74h2.4v4.9h1.374l4.68-4.9h3.253l-5.687 6 6.134 6h-3.34l-5.087-4.9h-1.32v4.9l-.007-.007zM60.333 25.693c1.733 0 3.087-.806 3.754-2.106h2.533c-.74 2.693-3.207 4.406-6.287 4.406-3.753 0-6.58-2.673-6.58-6.24 0-3.566 2.813-6.273 6.58-6.273 3.087 0 5.534 1.713 6.287 4.407h-2.534c-.653-1.32-2.006-2.107-3.753-2.107-2.453 0-4.18 1.613-4.18 3.973s1.747 3.94 4.18 3.94zM75.967 19.3c0 .6-.127 1.147-.4 1.653H77.2V18.58h-1.24v.72h.007zM84.333 19.22c0 .353.314.627.72.627h1.18V18.58h-1.18c-.413 0-.72.267-.72.64z" fill="#231F20"/><path d="M86.993 15.48h-12.98a3.053 3.053 0 00-3.053 3.053v2.56a3.053 3.053 0 003.053 3.054h12.98a3.053 3.053 0 003.054-3.054v-2.56a3.053 3.053 0 00-3.054-3.053zm-8.56 7.033h-.753v-.86h-2.553v.86h-.754v-1.56h.414c.286-.48.426-1.04.426-1.666v-1.4h2.74v3.066h.474v1.56h.006zm4.467-.866h-.753v-3.074H80.44l-.153 1.574c-.114 1.173-.447 1.58-1.314 1.58v-.687c.354 0 .487-.227.554-.84l.22-2.32H82.9v3.767zm4.093 0h-.753v-1.1h-1.013l-.84 1.1h-.94l.946-1.247c-.466-.213-.813-.653-.813-1.18 0-.8.68-1.333 1.473-1.333h1.934v3.766l.006-.006zM9.767 30.693v2.094H2.4v2.26h4.093c2.314 0 4.407 1.613 4.407 3.806 0 2.314-1.987 3.84-4.407 3.84H0V30.7h9.767v-.007zm-3.274 6.474H2.4v3.406h4.093c1.18 0 2.007-.74 2.007-1.733 0-.927-.84-1.68-2.007-1.68v.007zM22.6 42.687v-8l-7.433 8h-1.934V30.693h2.4v7.954l7.454-7.954h1.92v11.994H22.6zM27.667 38.453h2.4c0 1.374 1.286 2.294 3.086 2.294 1.8 0 2.76-.634 2.76-1.66 0-1.027-.98-1.66-2.946-1.66h-1.08v-1.854h1.06c1.866 0 2.62-.5 2.62-1.526 0-.894-.98-1.44-2.574-1.44-1.506 0-2.606.806-2.606 1.953h-2.4c0-2.333 2.193-4.127 4.966-4.127 3.12 0 5.194 1.334 5.194 3.34 0 1.214-.7 2.14-1.987 2.674 1.493.58 2.313 1.593 2.313 2.933 0 2.14-2.16 3.567-5.413 3.567-3.053 0-5.4-1.934-5.4-4.487l.007-.007zM40.927 30.693h2.4v4.887h6.56v-4.887h2.4v11.994h-2.4v-4.9h-6.56v4.9h-2.4V30.693zM55.133 30.693h9.907v2.214h-7.507v2.673h7.234v2.213h-7.234v2.674h7.507v2.226h-9.907v-12zM73.84 40.647c1.733 0 3.087-.807 3.753-2.107h2.534c-.74 2.693-3.207 4.407-6.287 4.407-3.753 0-6.58-2.674-6.58-6.24 0-3.567 2.813-6.274 6.58-6.274 3.087 0 5.533 1.714 6.287 4.407h-2.534c-.653-1.32-2.006-2.107-3.753-2.107-2.453 0-4.18 1.614-4.18 3.974 0 2.36 1.747 3.94 4.18 3.94zM87.153 30.693h2.674l6.046 11.994H93.2l-1.42-2.827h-6.56l-1.42 2.827h-2.653l6.013-11.994h-.007zm3.514 6.974l-2.174-4.32-2.173 4.32h4.353-.006z" fill="#231F20"/></svg>