<svg width="96" height="308" fill="none" xmlns="http://www.w3.org/2000/svg"><path d="M-275.054 307.787c-17.929 0-35.316-5.16-51.615-16.838-63.839-45.491-58.27-105.513-44.552-158.337 15.892-60.43 44.145-97.909 45.231-99.402l49.306 37.615s-22.14 29.739-34.636 77.539c-12.904 49.43-8.014 71.836 20.51 92.205 37.76 26.887 131.482-63.281 206.73-135.659C-27.983 50.863 62.886 2.384 66.69.347l29.067 54.726c-.815.407-87.066 46.578-136.779 94.377-84.214 80.934-164.624 158.337-234.168 158.337h.136z" fill="#4EA5D6"/></svg>