<svg width="100" height="39" fill="none" xmlns="http://www.w3.org/2000/svg"><path d="M9.773 4.74v2.093H2.407v2.26H6.5c2.313 0 4.407 1.614 4.407 3.807 0 2.313-1.987 3.84-4.407 3.84H.007V4.747h9.766V4.74zM6.5 11.213H2.407v3.407H6.5c1.18 0 2.007-.74 2.007-1.733 0-.927-.84-1.68-2.007-1.68v.006zM13.233 4.74h6.134c2.573 0 4.726 1.693 4.726 4.247 0 2.413-2.28 4.246-4.726 4.246h-3.734v3.494h-2.4V4.733v.007zm6.134 2.207h-3.734v4.046h3.734c1.32 0 2.333-.873 2.333-2.006 0-1.134-.993-2.04-2.333-2.04zM35.833 16.733v-8l-7.433 8h-1.933V4.74h2.4v7.953L36.32 4.74h1.92v11.993h-2.407zM43.473 16.733h-2.4V4.74h2.4v4.9h1.374l4.68-4.9h3.253l-5.687 6 6.134 6h-3.34l-5.087-4.9h-1.32v4.9l-.007-.007zM60.333 14.693c1.734 0 3.087-.806 3.754-2.106h2.533c-.74 2.693-3.207 4.406-6.287 4.406-3.753 0-6.58-2.673-6.58-6.24 0-3.566 2.814-6.273 6.58-6.273 3.087 0 5.534 1.713 6.287 4.407h-2.533c-.654-1.32-2.007-2.107-3.754-2.107-2.453 0-4.18 1.613-4.18 3.973s1.747 3.94 4.18 3.94zM75.967 8.3c0 .6-.127 1.147-.4 1.653H77.2V7.58h-1.24v.72h.007zM84.333 8.22c0 .353.314.627.72.627h1.18V7.58h-1.18c-.413 0-.72.267-.72.64z" fill="#231F20"/><path d="M86.993 4.48h-12.98a3.053 3.053 0 00-3.053 3.053v2.56a3.053 3.053 0 003.053 3.054h12.98a3.053 3.053 0 003.054-3.054v-2.56a3.053 3.053 0 00-3.054-3.053zm-8.56 7.033h-.753v-.86h-2.553v.86h-.754v-1.56h.414c.286-.48.426-1.04.426-1.666v-1.4h2.74v3.066h.474v1.56h.006zm4.467-.866h-.753V7.573H80.44l-.153 1.574c-.114 1.173-.447 1.58-1.314 1.58v-.687c.354 0 .487-.227.554-.84l.22-2.32H82.9v3.767zm4.093 0h-.753v-1.1h-1.013l-.84 1.1h-.94l.946-1.247c-.466-.213-.813-.653-.813-1.18 0-.8.68-1.333 1.473-1.333h1.934v3.766l.006-.006zM9.767 19.693v2.094H2.4v2.26h4.093c2.314 0 4.407 1.613 4.407 3.806 0 2.314-1.987 3.84-4.407 3.84H0V19.7h9.767v-.007zm-3.274 6.474H2.4v3.406h4.093c1.18 0 2.007-.74 2.007-1.733 0-.927-.84-1.68-2.007-1.68v.007zM22.6 31.687v-8l-7.433 8h-1.934V19.693h2.4v7.954l7.454-7.954h1.92v11.994H22.6zM27.667 27.453h2.4c0 1.374 1.286 2.294 3.086 2.294 1.8 0 2.76-.634 2.76-1.66 0-1.027-.98-1.66-2.946-1.66h-1.08v-1.854h1.06c1.866 0 2.62-.5 2.62-1.526 0-.894-.98-1.44-2.574-1.44-1.506 0-2.606.806-2.606 1.953h-2.4c0-2.333 2.193-4.127 4.966-4.127 3.12 0 5.194 1.334 5.194 3.34 0 1.214-.7 2.14-1.987 2.674 1.493.58 2.313 1.593 2.313 2.933 0 2.14-2.16 3.567-5.413 3.567-3.053 0-5.4-1.934-5.4-4.487l.007-.007zM40.927 19.693h2.4v4.887h6.56v-4.887h2.4v11.994h-2.4v-4.9h-6.56v4.9h-2.4V19.693zM55.133 19.693h9.907v2.214h-7.507v2.673h7.234v2.213h-7.234v2.674h7.507v2.226h-9.907v-12zM73.84 29.647c1.733 0 3.087-.807 3.753-2.107h2.534c-.74 2.693-3.207 4.407-6.287 4.407-3.753 0-6.58-2.674-6.58-6.24 0-3.567 2.813-6.274 6.58-6.274 3.087 0 5.533 1.714 6.287 4.407h-2.534c-.653-1.32-2.006-2.107-3.753-2.107-2.453 0-4.18 1.614-4.18 3.974 0 2.36 1.747 3.94 4.18 3.94zM87.153 19.693h2.674l6.046 11.994H93.2l-1.42-2.827h-6.56l-1.42 2.827h-2.653l6.013-11.994h-.007zm3.514 6.974l-2.174-4.32-2.173 4.32h4.353-.006z" fill="#231F20"/></svg>