<svg width="219" height="443" fill="none" xmlns="http://www.w3.org/2000/svg"><path d="M150.907 442.743c-25.777 0-50.773-7.419-74.206-24.209-91.78-65.402-83.774-151.693-64.05-227.638 22.847-86.877 63.464-140.76 65.026-142.908l70.886 54.079s-31.83 42.755-49.795 111.476c-18.552 71.064-11.522 103.276 29.486 132.561 54.287 38.655 189.029-90.977 297.212-195.034C506.116 73.368 636.756 3.671 642.224.743l41.789 78.677c-1.171.586-125.172 66.964-196.644 135.685-121.072 116.357-236.676 227.638-336.658 227.638h.196z" fill="#593092"/></svg>